Coordinates
version=1
nRows=9
nColumns=24
inDegrees=yes

Units are S.I. units (second, meters, Newtons, ...)
Angles are in degrees.

endheader
time	pelvis_tilt	pelvis_list	pelvis_rotation	pelvis_tx	pelvis_ty	pelvis_tz	hip_flexion_r	hip_adduction_r	hip_rotation_r	knee_angle_r	ankle_angle_r	subtalar_angle_r	mtp_angle_r	hip_flexion_l	hip_adduction_l	hip_rotation_l	knee_angle_l	ankle_angle_l	subtalar_angle_l	mtp_angle_l	lumbar_extension	lumbar_bending	lumbar_rotation
      0.71700000	     -6.13888659	      6.64770406	     10.15591656	     -0.08148717	      0.96363783	      0.24989657	     39.08835958	    -11.96973219	     -8.47346049	     -5.02334847	      6.41280480	     -9.50668873	     -9.39819728	    -14.26044576	      6.88520785	     -4.11610186	     -2.19528241	     13.56987845	      3.45649501	      5.73134985	     -6.97290903	     -6.99896277	     -5.82059311
      0.72116667	     -6.17108001	      6.64203322	     10.26449862	     -0.07578718	      0.96251344	      0.25002832	     38.98159603	    -12.00167542	     -8.38313221	     -5.54997127	      6.48897006	     -9.60723907	     -9.38922127	    -14.47323380	      6.75541878	     -4.05493388	     -2.40963466	     13.62991897	      3.54890314	      5.74594099	     -6.91061310	     -6.93558159	     -5.83325680
      0.72533333	     -6.18507286	      6.63668771	     10.37622714	     -0.07006699	      0.96145285	      0.25019036	     38.84885221	    -12.03004423	     -8.30041354	     -6.09132753	      6.54618241	     -9.69607378	     -9.37438307	    -14.68754387	      6.61516506	     -4.02409961	     -2.65844384	     13.69915394	      3.71362956	      5.76921888	     -6.86789453	     -6.86240019	     -5.87586616
      0.72950000	     -6.15760215	      6.58376356	     10.46862450	     -0.06427227	      0.96049799	      0.25044998	     38.65630590	    -11.99073299	     -8.24120249	     -6.61181815	      6.51547075	     -9.77345268	     -9.33164589	    -14.92509029	      6.40790870	     -4.07496723	     -2.93021137	     13.78118979	      4.03885274	      5.83163483	     -6.88749179	     -6.72811141	     -5.97686188
      0.73366667	     -6.07627937	      6.48076666	     10.53182685	     -0.05833930	      0.95968316	      0.25075156	     38.38144136	    -11.87682865	     -8.23110341	     -7.08535347	      6.39093561	     -9.92689541	     -9.23209198	    -15.21906972	      6.14209719	     -4.19491806	     -3.18521409	     13.80671207	      4.32596421	      5.96360634	     -6.90750193	     -6.53181515	     -6.02091672
      0.73783333	     -6.03526269	      6.40229231	     10.60057965	     -0.05241741	      0.95882919	      0.25106392	     38.16279254	    -11.78988641	     -8.20682824	     -7.57966589	      6.23477781	    -10.08579430	     -9.12240895	    -15.47830213	      5.90879020	     -4.22219124	     -3.43173690	     13.81128071	      4.53933575	      6.10178336	     -6.89939005	     -6.37427459	     -6.03030454
      0.74200000	     -6.02679103	      6.31437581	     10.67052326	     -0.04645738	      0.95797970	      0.25139729	     37.97722809	    -11.69449888	     -8.19890459	     -8.06038565	      6.03426927	    -10.23995323	     -9.03748398	    -15.69054214	      5.66999944	     -4.24601595	     -3.69442116	     13.70727273	      4.70176470	      6.20335339	     -6.86230365	     -6.21023425	     -6.03751477
      0.74616667	     -5.97607095	      6.18991959	     10.69920551	     -0.04042587	      0.95723395	      0.25181247	     37.74350472	    -11.53055523	     -8.20646014	     -8.49455576	      5.69939026	    -10.44492256	     -8.91801662	    -15.94496165	      5.39119047	     -4.31216782	     -3.95293598	     13.67116532	      4.88773400	      6.34119571	     -6.85820833	     -6.00464689	     -6.05341320
      0.75033333	     -5.81691688	      6.04792401	     10.67277441	     -0.03435392	      0.95670249	      0.25237601	     37.38900298	    -11.29733495	     -8.21401907	     -8.87178145	      5.29906927	    -10.68876144	     -8.61635605	    -16.29478474	      5.07517755	     -4.51265505	     -4.23192669	     13.58421398	      5.16352575	      6.66762483	     -6.96178280	     -5.76247059	     -6.03286634
